<svg xmlns="http://www.w3.org/2000/svg" viewBox="311.787 344.453 90.517 100">
<path
    fill="#88dbdf"
    d="M371.34 395.829c-6.915 0-9.824 4.797-9.886 4.9a.091.091 0 00-.005.007v-13.285l.004.003a14.396 14.396 0 003.482 3.228l.09.058c.173.11.345.217.52.32l.2.115c.125.072.256.142.386.21.095.05.19.1.287.148.082.04.162.08.243.118a12.891 12.891 0 00.652.287 9.4 9.4 0 00.431.17l.199.073c.147.052.294.102.44.15l.173.055c.175.053.35.103.526.148a14.808 14.808 0 00.724.173c.06.013.118.023.18.035.146.029.295.054.442.078l.229.038c.157.021.315.042.474.06.087.009.174.02.261.026.16.016.322.026.483.038a15.052 15.052 0 00.56.02c.094.001.185.004.279.004 3.922 0 7.471-1.59 10.048-4.153l-1.995-1.994a11.401 11.401 0 01-5.754 3.089c-.111.022-.224.04-.335.059-.07.013-.142.027-.214.038a11.47 11.47 0 01-1.75.135c-5.705 0-10.417-4.19-11.264-9.658v-3.509c.847-5.468 5.56-9.657 11.264-9.657a11.387 11.387 0 018.083 3.354l1.996-1.996a14.198 14.198 0 00-8.251-4.063 14.185 14.185 0 00-10.327 2.708l-.008.006a14.216 14.216 0 00-1.592 1.39c-.14.14-.277.282-.41.428l-.047.054c-.13.143-.255.288-.377.435-.017.02-.037.041-.052.062a12.62 12.62 0 00-.275.35v-.005l-.005.004v-5.627h-3.05v60h2.976v-15.692c0-.195.022-.492.079-.859.397-2.68 2.487-9.178 9.81-9.178 8.327 0 10.111 8.328 10.111 10.93v14.797h2.825v-14.126c0-8.553-5.874-14.5-12.86-14.5z"
  />
  <path
    d="M355.462 364.454v5.826a14.971 14.971 0 00-1.02-1.269c-2.46-2.708-5.498-4.2-9.105-4.483a16.076 16.076 0 00-1.284-.055c-.437 0-.864.021-1.286.055-3.625.283-6.669 1.784-9.131 4.507-2.488 2.75-3.735 5.995-3.745 9.735v.079c.01 3.773 1.33 7.071 3.96 9.897 2.639 2.834 6.037 4.251 10.202 4.251 4.146 0 7.538-1.417 10.178-4.251a15.938 15.938 0 001.23-1.515v14.423a14.496 14.496 0 00-1.019-1.265c-2.747-3.027-6.21-4.539-10.389-4.539-4.197 0-7.667 1.521-10.416 4.562-2.489 2.75-3.735 5.994-3.746 9.735v.078c.01 3.771 1.33 7.074 3.96 9.897 2.639 2.833 6.038 4.251 10.202 4.251 4.146 0 7.537-1.418 10.18-4.25a16.19 16.19 0 001.228-1.517v5.848h3.016v-60h-3.015zm-11.313 25.78c-6.31 0-11.423-5.113-11.423-11.422s5.114-11.42 11.423-11.42c5.805 0 10.586 4.333 11.312 9.94v2.96c-.726 5.608-5.507 9.942-11.312 9.942zm.001 31.373c-6.31 0-11.423-5.112-11.423-11.421 0-6.31 5.113-11.42 11.423-11.42 5.806 0 10.585 4.331 11.312 9.94v2.96c-.727 5.608-5.506 9.941-11.312 9.941z"
  />
</svg>
