<svg
  xmlns="http://www.w3.org/2000/svg"
  viewBox="171.711 -0.681 331.045 100"
><path
    fill="#88DBDF"
    d="M237.277 48.948c-10.938 0-15.54 7.589-15.637 7.751a.707.707 0 00-.007.011V35.695l.005.005a22.643 22.643 0 003.978 4.005c.005.007.01.01.018.015a21.965 21.965 0 002.477 1.683c.104.06.208.122.317.181.198.114.403.224.609.332.151.081.302.159.455.236l.384.186c.23.108.463.214.701.315.108.05.22.093.332.139.225.093.451.185.681.268l.314.116c.233.083.465.163.698.236l.272.088c.277.084.555.163.832.234.099.028.198.053.297.078.283.071.565.136.85.196.092.02.186.036.282.054.233.046.468.087.701.126.124.019.242.041.361.058.25.034.499.066.75.095.138.014.274.032.413.042.252.025.51.042.763.06.172.01.345.015.52.021.121.007.242.009.366.01.149.003.292.007.441.007 6.204 0 11.819-2.513 15.894-6.569l-3.156-3.154a18.027 18.027 0 01-9.101 4.886c-.176.035-.354.063-.53.094-.111.02-.225.043-.34.061-.901.139-1.826.213-2.767.213-9.023 0-16.478-6.629-17.816-15.278v-5.55c1.339-8.65 8.793-15.276 17.817-15.276 4.993 0 9.515 2.028 12.784 5.305l3.159-3.158a22.458 22.458 0 00-13.052-6.426 22.443 22.443 0 00-17.94 5.604l-.113.103a22.676 22.676 0 00-.812.784c-.223.222-.438.448-.648.679-.025.028-.049.058-.074.085-.206.225-.404.456-.597.688-.027.033-.057.064-.082.097-.148.182-.294.369-.436.556v-.01c-.005.002-.005.003-.007.006V-.682h-4.825v94.908h4.708V69.408c0-.309.034-.779.124-1.359.629-4.238 3.934-14.518 15.518-14.518 13.171 0 15.994 13.173 15.994 17.288v23.408h4.468V71.881c-.001-13.527-9.291-22.933-20.343-22.933z"
  /><path
    d="M212.161-.681v9.217a23.681 23.681 0 00-1.612-2.007c-3.892-4.284-8.697-6.645-14.403-7.091-.666-.053-1.341-.086-2.032-.086s-1.367.033-2.033.086c-5.734.448-10.548 2.822-14.444 7.129-3.937 4.352-5.908 9.484-5.924 15.398l-.001.064.001.061c.017 5.967 2.104 11.187 6.264 15.654 4.174 4.484 9.551 6.725 16.138 6.725 6.558 0 11.925-2.241 16.101-6.725a25.522 25.522 0 001.945-2.396v22.813a23.077 23.077 0 00-1.611-2c-4.344-4.787-9.823-7.179-16.434-7.179-6.637 0-12.127 2.407-16.477 7.214-3.936 4.349-5.908 9.481-5.924 15.398l-.001.065.001.059c.016 5.967 2.104 11.19 6.263 15.656 4.174 4.481 9.551 6.724 16.137 6.724 6.559 0 11.924-2.242 16.103-6.724a25.63 25.63 0 001.944-2.398v9.252h4.771V-.681h-4.772zm-17.894 40.779c-9.979 0-18.068-8.087-18.068-18.067 0-9.978 8.088-18.065 18.068-18.065 9.183 0 16.745 6.855 17.895 15.726v4.681c-1.15 8.87-8.713 15.725-17.895 15.725zm.002 49.627c-9.981 0-18.068-8.086-18.068-18.066s8.087-18.064 18.068-18.064c9.183 0 16.743 6.852 17.892 15.726V74c-1.149 8.87-8.709 15.725-17.892 15.725zm89.109-84.156V20.44h-1.886v-2.556c-.802.975-1.702 1.709-2.7 2.201-.998.492-2.089.738-3.273.738-2.105 0-3.902-.763-5.392-2.29-1.49-1.526-2.235-3.383-2.235-5.569 0-2.141.752-3.973 2.255-5.495s3.312-2.283 5.427-2.283c1.221 0 2.326.26 3.314.779.989.519 1.856 1.298 2.604 2.337V5.569h1.886zm-7.647 1.462a5.771 5.771 0 00-5.099 2.99 6.03 6.03 0 00-.799 3.004c0 1.046.269 2.048.806 3.003s1.258 1.7 2.164 2.232a5.65 5.65 0 002.915.798 5.97 5.97 0 002.976-.791c.938-.529 1.659-1.243 2.164-2.144.505-.902.758-1.916.758-3.044 0-1.72-.567-3.158-1.7-4.315-1.134-1.155-2.529-1.733-4.185-1.733zm11.125-1.462h1.913v6.944c0 1.695.091 2.861.274 3.499a3.902 3.902 0 001.567 2.16c.771.529 1.69.792 2.758.792 1.067 0 1.974-.257 2.717-.772a3.954 3.954 0 001.54-2.03c.192-.574.288-1.79.288-3.649V5.569h1.955v7.299c0 2.05-.239 3.595-.717 4.634-.479 1.039-1.198 1.852-2.16 2.439s-2.167.882-3.615.882-2.659-.294-3.629-.882a5.434 5.434 0 01-2.173-2.46c-.478-1.053-.717-2.636-.717-4.75V5.569h-.001zm23.95 1.626l-1.23 1.271c-1.023-.992-2.024-1.489-3.001-1.489-.622 0-1.153.205-1.596.615-.443.41-.665.889-.665 1.435 0 .483.183.943.548 1.381.365.447 1.132.97 2.301 1.571 1.424.738 2.392 1.449 2.904 2.132.502.693.753 1.472.753 2.338 0 1.221-.429 2.255-1.287 3.103-.858.847-1.93 1.271-3.217 1.271a5.627 5.627 0 01-2.457-.56 5.358 5.358 0 01-1.938-1.545l1.203-1.367c.977 1.103 2.014 1.654 3.11 1.654.767 0 1.42-.246 1.959-.738.539-.492.808-1.071.808-1.736 0-.546-.178-1.033-.534-1.462-.356-.419-1.16-.947-2.411-1.586-1.342-.692-2.256-1.376-2.74-2.05a3.867 3.867 0 01-.726-2.31c0-1.13.386-2.069 1.157-2.816.771-.747 1.745-1.121 2.923-1.121 1.371 0 2.749.67 4.136 2.009zm4.481-7.149h1.914v5.523h3.035v1.654h-3.035v13.218h-1.914V7.223h-2.61V5.569h2.61V.046zm6.677 5.523h1.955v2.173c.583-.856 1.198-1.497 1.845-1.92.647-.423 1.321-.635 2.023-.635.528 0 1.093.168 1.695.505l-.999 1.614c-.401-.173-.737-.261-1.012-.261-.637 0-1.252.263-1.845.787s-1.044 1.337-1.354 2.439c-.237.847-.355 2.561-.355 5.14v5.029h-1.955l.002-14.871zm9.838-6.124c.435 0 .808.155 1.116.465.308.31.462.683.462 1.121 0 .428-.154.797-.462 1.106-.308.31-.681.465-1.116.465-.427 0-.794-.155-1.103-.465a1.513 1.513 0 01-.462-1.106c0-.438.154-.811.462-1.121.309-.31.676-.465 1.103-.465zm-.949 6.124h1.914V20.44h-1.914V5.569zm20.066 0V20.44h-1.886v-2.556c-.802.975-1.701 1.709-2.7 2.201-.998.492-2.089.738-3.273.738-2.105 0-3.902-.763-5.392-2.29-1.49-1.526-2.235-3.383-2.235-5.569 0-2.141.752-3.973 2.256-5.495 1.502-1.522 3.311-2.283 5.426-2.283 1.221 0 2.326.26 3.315.779.989.519 1.856 1.298 2.604 2.337V5.569h1.885zm-7.648 1.462a5.771 5.771 0 00-5.099 2.99 6.03 6.03 0 00-.799 3.004c0 1.046.269 2.048.806 3.003.537.956 1.259 1.7 2.164 2.232s1.877.798 2.915.798a5.973 5.973 0 002.976-.791 5.56 5.56 0 002.166-2.144c.505-.902.757-1.916.757-3.044 0-1.72-.566-3.158-1.7-4.315-1.135-1.155-2.529-1.733-4.186-1.733zm11.307-1.462h1.914v2.666c.765-1.021 1.613-1.784 2.542-2.29a6.26 6.26 0 013.036-.758c1.111 0 2.098.283 2.959.847a5.06 5.06 0 011.907 2.283c.41.957.615 2.447.615 4.47v7.654h-1.914v-7.094c0-1.713-.071-2.856-.212-3.431-.221-.984-.647-1.724-1.275-2.221-.629-.497-1.449-.745-2.46-.745-1.158 0-2.195.383-3.11 1.147-.916.766-1.52 1.714-1.811 2.843-.183.738-.273 2.087-.273 4.046v5.454h-1.914l-.004-14.871zm38.809 3.088l-1.517.943c-1.312-1.74-3.099-2.61-5.366-2.61-1.812 0-3.315.583-4.512 1.747-1.197 1.165-1.796 2.581-1.796 4.246 0 1.083.275 2.103.826 3.059a5.789 5.789 0 002.267 2.226c.96.528 2.037.792 3.229.792 2.184 0 3.968-.87 5.352-2.61l1.517.998c-.711 1.07-1.666 1.9-2.864 2.491-1.198.59-2.563.885-4.094.885-2.351 0-4.301-.747-5.85-2.241s-2.324-3.312-2.324-5.455c0-1.439.362-2.777 1.087-4.012s1.72-2.198 2.986-2.891c1.267-.692 2.684-1.039 4.251-1.039.984 0 1.935.15 2.85.451.917.301 1.692.692 2.331 1.175a6.402 6.402 0 011.627 1.845zm14.814 6.849l1.613.847c-.529 1.039-1.14 1.877-1.833 2.515a7.288 7.288 0 01-2.339 1.456c-.867.333-1.847.499-2.942.499-2.426 0-4.323-.794-5.691-2.385-1.368-1.59-2.052-3.388-2.052-5.393 0-1.886.578-3.567 1.737-5.043 1.469-1.877 3.434-2.816 5.896-2.816 2.537 0 4.56.961 6.074 2.884 1.076 1.358 1.624 3.052 1.643 5.084h-13.381c.036 1.728.588 3.144 1.656 4.248 1.067 1.104 2.386 1.657 3.955 1.657.758 0 1.494-.131 2.211-.395.716-.263 1.325-.612 1.827-1.047.499-.437 1.042-1.14 1.626-2.111zm0-4.005c-.255-1.02-.627-1.835-1.117-2.446-.488-.61-1.132-1.103-1.937-1.477a5.94 5.94 0 00-2.532-.56c-1.459 0-2.714.469-3.762 1.408-.766.684-1.346 1.708-1.739 3.075h11.087zm4.874-5.932h1.914v2.666c.766-1.021 1.613-1.784 2.542-2.29a6.254 6.254 0 013.035-.758c1.111 0 2.098.283 2.959.847a5.054 5.054 0 011.907 2.283c.41.957.616 2.447.616 4.47v7.654h-1.913v-7.094c0-1.713-.071-2.856-.213-3.431-.221-.984-.647-1.724-1.275-2.221-.629-.497-1.449-.745-2.46-.745-1.158 0-2.195.383-3.11 1.147a5.382 5.382 0 00-1.812 2.843c-.183.738-.274 2.087-.274 4.046v5.454h-1.914V5.569zM430.418.046h1.913v5.523h3.035v1.654h-3.035v13.218h-1.913V7.223h-2.611V5.569h2.611V.046zm6.677 5.523h1.955v2.173c.583-.856 1.199-1.497 1.845-1.92.647-.423 1.321-.635 2.023-.635.529 0 1.094.168 1.696.505l-.999 1.614c-.4-.173-.737-.261-1.011-.261-.638 0-1.253.263-1.844.787-.593.524-1.044 1.337-1.354 2.439-.236.847-.355 2.561-.355 5.14v5.029h-1.955V5.569zm20.372 9.937l1.614.847c-.53 1.039-1.14 1.877-1.833 2.515a7.292 7.292 0 01-2.34 1.456c-.866.333-1.846.499-2.94.499-2.426 0-4.323-.794-5.691-2.385-1.369-1.59-2.053-3.388-2.053-5.393 0-1.886.58-3.567 1.738-5.043 1.469-1.877 3.435-2.816 5.897-2.816 2.535 0 4.559.961 6.074 2.884 1.076 1.358 1.623 3.052 1.642 5.084h-13.381c.036 1.728.589 3.144 1.656 4.248s2.386 1.657 3.955 1.657a6.34 6.34 0 002.21-.395c.717-.263 1.325-.612 1.828-1.047.498-.436 1.04-1.14 1.624-2.111zm0-4.005c-.255-1.02-.627-1.835-1.115-2.446-.488-.61-1.134-1.103-1.937-1.477a5.94 5.94 0 00-2.531-.56c-1.46 0-2.715.469-3.764 1.408-.767.684-1.346 1.708-1.738 3.075h11.085zM476.565-.172V1.7c-.702-.301-1.304-.451-1.804-.451-.374 0-.684.075-.93.226-.247.15-.401.324-.464.519-.064.196-.096.718-.096 1.565l-.001 2.01h3.104v1.654h-3.106l-.01 13.217h-1.913V7.223h-1.957V5.569h1.957V3.244c0-1.066.097-1.827.292-2.283.195-.455.53-.822.999-1.101.469-.277 1.035-.417 1.7-.417.62.002 1.363.13 2.229.385zm8.131 5.358c2.292 0 4.188.829 5.696 2.487 1.369 1.513 2.055 3.304 2.055 5.371 0 2.078-.723 3.894-2.17 5.447s-3.308 2.331-5.58 2.331c-2.283 0-4.146-.777-5.594-2.331-1.446-1.554-2.169-3.37-2.169-5.447 0-2.059.685-3.845 2.054-5.357 1.505-1.667 3.408-2.501 5.708-2.501zm-.007 1.872c-1.591 0-2.958.588-4.101 1.763-1.145 1.176-1.715 2.597-1.715 4.265 0 1.076.262 2.078.782 3.008a5.556 5.556 0 002.112 2.153c.887.505 1.861.758 2.922.758s2.034-.252 2.923-.758c.887-.506 1.589-1.224 2.112-2.153.521-.93.781-1.932.781-3.008 0-1.667-.573-3.089-1.721-4.265-1.148-1.175-2.512-1.763-4.095-1.763zm10.305-1.489h1.954v2.173c.583-.856 1.198-1.497 1.846-1.92.646-.423 1.32-.635 2.022-.635.528 0 1.094.168 1.695.505l-.998 1.614c-.4-.173-.738-.261-1.012-.261-.638 0-1.253.263-1.845.787-.593.524-1.044 1.337-1.354 2.439-.236.847-.355 2.561-.355 5.14v5.029h-1.954V5.569zM283.406 36.355v20.612h-1.886v-2.556c-.802.976-1.702 1.709-2.7 2.201-.998.492-2.089.738-3.273.738-2.105 0-3.902-.763-5.392-2.29s-2.235-3.383-2.235-5.569c0-2.142.752-3.973 2.255-5.495 1.503-1.521 3.312-2.283 5.427-2.283 1.221 0 2.326.26 3.314.779.988.52 1.856 1.299 2.604 2.337v-8.475h1.886zm-7.648 7.204a5.771 5.771 0 00-5.1 2.99 6.038 6.038 0 00-.798 3.004c0 1.046.269 2.047.805 3.002a5.864 5.864 0 002.164 2.232 5.65 5.65 0 002.915.799 5.96 5.96 0 002.976-.792 5.54 5.54 0 002.164-2.143c.505-.902.758-1.916.758-3.044 0-1.721-.567-3.158-1.7-4.315-1.132-1.155-2.527-1.733-4.184-1.733zm12.778-7.586c.436 0 .808.155 1.116.464.308.31.462.684.462 1.121 0 .428-.154.797-.462 1.106-.309.31-.681.465-1.116.465a1.5 1.5 0 01-1.102-.465 1.51 1.51 0 01-.463-1.106c0-.438.154-.811.463-1.121a1.502 1.502 0 011.102-.464zm-.95 6.123h1.914v14.871h-1.914V42.096zm18.645 0h1.914v11.851c0 2.087-.183 3.613-.547 4.579-.501 1.367-1.372 2.419-2.61 3.157-1.239.738-2.729 1.107-4.47 1.107-1.276 0-2.422-.181-3.438-.542-1.017-.361-1.843-.846-2.481-1.454-.638-.607-1.226-1.496-1.763-2.667h2.078c.565.984 1.295 1.713 2.189 2.187s2.003.711 3.326.711c1.305 0 2.407-.243 3.305-.729.899-.486 1.54-1.097 1.922-1.832.384-.735.575-1.923.575-3.563v-.766a7.251 7.251 0 01-2.641 2.099 7.714 7.714 0 01-3.311.731 7.73 7.73 0 01-3.858-1.018c-1.204-.679-2.134-1.593-2.792-2.741-.657-1.148-.985-2.41-.985-3.786s.342-2.659 1.026-3.848a7.541 7.541 0 012.839-2.822c1.209-.692 2.483-1.039 3.824-1.039 1.112 0 2.15.23 3.113.69.962.461 1.891 1.219 2.784 2.276l.001-2.581zm-5.645 1.463a6.052 6.052 0 00-3.021.786c-.93.524-1.659 1.249-2.187 2.173s-.792 1.925-.792 3c0 1.631.547 2.98 1.64 4.046 1.094 1.066 2.511 1.6 4.251 1.6 1.758 0 3.173-.529 4.244-1.586 1.07-1.057 1.606-2.447 1.606-4.169 0-1.121-.246-2.12-.738-3-.492-.88-1.189-1.574-2.091-2.084s-1.873-.766-2.912-.766zm12.538-7.586c.436 0 .808.155 1.116.464.308.31.463.684.463 1.121 0 .428-.155.797-.463 1.106-.308.31-.681.465-1.116.465a1.5 1.5 0 01-1.102-.465 1.514 1.514 0 01-.463-1.106c0-.438.155-.811.463-1.121a1.502 1.502 0 011.102-.464zm-.95 6.123h1.914v14.871h-1.914V42.096zm7.245-5.522h1.914v5.523h3.035v1.654h-3.035v13.218h-1.914V43.75h-2.61v-1.654h2.61v-5.522zm21.627 5.522v14.871h-1.886v-2.556c-.802.976-1.702 1.709-2.7 2.201-.998.492-2.089.738-3.273.738-2.105 0-3.902-.763-5.393-2.29-1.489-1.526-2.234-3.383-2.234-5.569 0-2.142.751-3.973 2.255-5.495 1.502-1.521 3.311-2.283 5.426-2.283 1.221 0 2.325.26 3.315.779.989.52 1.856 1.299 2.603 2.337v-2.733h1.887zm-7.647 1.463a5.771 5.771 0 00-5.099 2.99 6.03 6.03 0 00-.799 3.004 6.04 6.04 0 00.805 3.002c.537.956 1.258 1.7 2.164 2.232a5.648 5.648 0 002.915.799 5.963 5.963 0 002.976-.792 5.54 5.54 0 002.164-2.143c.505-.902.759-1.916.759-3.044 0-1.721-.567-3.158-1.7-4.315-1.133-1.155-2.529-1.733-4.185-1.733zm11.767-7.204h1.914v20.612h-1.914V36.355zm14.369 0h1.914v8.406c.774-1.021 1.626-1.784 2.556-2.289a6.226 6.226 0 013.021-.759c1.111 0 2.098.283 2.959.847a5.057 5.057 0 011.907 2.276c.41.952.615 2.444.615 4.477v7.654h-1.913v-7.094c0-1.712-.068-2.856-.206-3.43-.236-.984-.668-1.724-1.291-2.221-.625-.497-1.443-.745-2.454-.745-1.158 0-2.194.383-3.109 1.147a5.382 5.382 0 00-1.812 2.843c-.183.73-.273 2.077-.273 4.046v5.454h-1.913l-.001-20.612zm16.798 5.741h1.914v6.944c0 1.694.091 2.861.274 3.499a3.902 3.902 0 001.567 2.16c.772.529 1.69.792 2.758.792s1.974-.257 2.718-.772 1.258-1.191 1.541-2.03c.191-.574.288-1.79.288-3.648v-6.944h1.954v7.299c0 2.05-.239 3.594-.718 4.633-.479 1.039-1.198 1.852-2.159 2.439s-2.167.881-3.615.881-2.659-.294-3.629-.881a5.422 5.422 0 01-2.173-2.46c-.478-1.053-.719-2.636-.719-4.75v-7.162h-.001zm17.166 0h1.914v2.569c.666-.947 1.35-1.64 2.053-2.078.967-.583 1.984-.875 3.052-.875.719 0 1.403.141 2.052.424.646.282 1.177.658 1.587 1.127.409.47.765 1.142 1.067 2.016.635-1.166 1.43-2.053 2.385-2.659a5.647 5.647 0 013.082-.909c1.027 0 1.934.26 2.721.779.787.52 1.371 1.244 1.752 2.173.381.93.574 2.324.574 4.183v8.119h-1.957v-8.119c0-1.594-.113-2.69-.34-3.287s-.615-1.077-1.165-1.442c-.548-.365-1.204-.547-1.968-.547a4.29 4.29 0 00-2.541.82 4.728 4.728 0 00-1.682 2.187c-.354.912-.532 2.433-.532 4.565v5.823h-1.914v-7.613c0-1.794-.11-3.014-.334-3.656a3.062 3.062 0 00-1.169-1.545c-.556-.387-1.216-.581-1.982-.581-.884 0-1.711.267-2.481.8a4.72 4.72 0 00-1.708 2.153c-.369.903-.554 2.284-.554 4.142v6.301h-1.914l.002-14.87zm41.001 0v14.871h-1.886v-2.556c-.802.976-1.702 1.709-2.7 2.201-.998.492-2.089.738-3.273.738-2.105 0-3.903-.763-5.393-2.29-1.489-1.526-2.234-3.383-2.234-5.569 0-2.142.751-3.973 2.254-5.495 1.503-1.521 3.312-2.283 5.427-2.283 1.221 0 2.325.26 3.314.779.988.52 1.856 1.299 2.604 2.337v-2.733h1.887zm-7.648 1.463a5.771 5.771 0 00-5.101 2.99 6.038 6.038 0 00-.798 3.004 6.04 6.04 0 00.805 3.002c.537.956 1.258 1.7 2.164 2.232a5.648 5.648 0 002.915.799 5.96 5.96 0 002.976-.792 5.54 5.54 0 002.164-2.143c.506-.902.76-1.916.76-3.044 0-1.721-.567-3.158-1.7-4.315-1.133-1.155-2.528-1.733-4.185-1.733zm11.895-1.463h1.914v2.666c.765-1.021 1.613-1.784 2.542-2.29a6.257 6.257 0 013.035-.758c1.111 0 2.098.282 2.959.847a5.055 5.055 0 011.907 2.283c.41.957.615 2.447.615 4.47v7.654h-1.913v-7.094c0-1.712-.071-2.856-.213-3.431-.222-.984-.647-1.724-1.276-2.221-.629-.497-1.449-.745-2.46-.745-1.158 0-2.194.383-3.11 1.147a5.386 5.386 0 00-1.811 2.843c-.183.738-.273 2.087-.273 4.046v5.454h-1.914l-.002-14.871zm17.852-6.123c.436 0 .808.155 1.117.464.308.31.462.684.462 1.121 0 .428-.154.797-.462 1.106-.308.31-.68.465-1.117.465-.426 0-.792-.155-1.102-.465a1.514 1.514 0 01-.463-1.106c0-.438.155-.811.463-1.121a1.504 1.504 0 011.102-.464zm-.95 6.123h1.913v14.871h-1.913V42.096zm7.245-5.522h1.913v5.523h3.035v1.654h-3.035v13.218h-1.913V43.75h-2.61v-1.654h2.61v-5.522zm8.42-.601c.434 0 .808.155 1.116.464.308.31.463.684.463 1.121 0 .428-.155.797-.463 1.106-.308.31-.681.465-1.116.465-.427 0-.794-.155-1.103-.465a1.513 1.513 0 01-.462-1.106c0-.438.154-.811.462-1.121a1.506 1.506 0 011.103-.464zm-.95 6.123h1.914v14.871h-1.914V42.096zm18.389 9.937l1.612.848c-.528 1.039-1.14 1.877-1.832 2.515a7.295 7.295 0 01-2.34 1.457c-.867.332-1.847.499-2.942.499-2.426 0-4.323-.795-5.691-2.385s-2.052-3.388-2.052-5.393c0-1.886.577-3.567 1.737-5.043 1.469-1.877 3.434-2.816 5.896-2.816 2.537 0 4.56.961 6.074 2.884 1.076 1.358 1.624 3.052 1.643 5.084h-13.381c.035 1.727.588 3.143 1.655 4.248 1.068 1.104 2.386 1.657 3.956 1.657.758 0 1.494-.131 2.211-.395.716-.263 1.325-.613 1.827-1.047.5-.438 1.043-1.141 1.627-2.113zm0-4.004c-.256-1.021-.628-1.836-1.117-2.446-.488-.611-1.132-1.103-1.937-1.477a5.933 5.933 0 00-2.531-.56c-1.459 0-2.714.469-3.763 1.408-.766.684-1.345 1.708-1.739 3.075h11.087zm12.799-4.306l-1.23 1.271c-1.023-.992-2.023-1.489-3.001-1.489-.622 0-1.154.205-1.597.615-.443.41-.665.889-.665 1.435 0 .483.184.943.549 1.381.363.447 1.131.97 2.3 1.571 1.426.738 2.394 1.449 2.905 2.132a3.89 3.89 0 01.754 2.338c0 1.22-.432 2.254-1.288 3.103-.858.847-1.931 1.271-3.217 1.271a5.633 5.633 0 01-2.458-.561 5.352 5.352 0 01-1.937-1.544l1.201-1.367c.978 1.103 2.015 1.653 3.11 1.653.767 0 1.42-.246 1.959-.738s.809-1.07.809-1.736c0-.546-.179-1.033-.534-1.462-.356-.419-1.159-.948-2.411-1.586-1.343-.692-2.255-1.375-2.739-2.05-.483-.674-.726-1.444-.726-2.311 0-1.13.386-2.068 1.157-2.815s1.745-1.121 2.923-1.121c1.371.001 2.75.67 4.136 2.01zm-191.886 37.99l-1.517.943c-1.311-1.74-3.099-2.61-5.365-2.61-1.812 0-3.315.583-4.512 1.747-1.197 1.165-1.795 2.581-1.795 4.247 0 1.083.275 2.103.826 3.058a5.786 5.786 0 002.266 2.226c.96.528 2.037.791 3.229.791 2.185 0 3.968-.87 5.352-2.61l1.517.998c-.71 1.071-1.665 1.9-2.863 2.491-1.198.59-2.563.886-4.094.886-2.351 0-4.301-.747-5.851-2.241-1.549-1.494-2.324-3.312-2.324-5.455 0-1.439.362-2.776 1.087-4.011a7.657 7.657 0 012.986-2.891c1.267-.693 2.684-1.039 4.251-1.039.984 0 1.935.149 2.85.451.916.301 1.692.692 2.331 1.175a6.367 6.367 0 011.626 1.844zm2.219-3.089h1.914v6.944c0 1.695.091 2.861.274 3.499.274.912.796 1.63 1.568 2.16.771.529 1.69.792 2.758.792s1.973-.258 2.717-.772a3.956 3.956 0 001.541-2.03c.191-.574.288-1.789.288-3.648v-6.943h1.954v7.299c0 2.05-.239 3.594-.717 4.633a5.474 5.474 0 01-2.16 2.439c-.961.587-2.167.881-3.615.881s-2.659-.294-3.629-.881a5.434 5.434 0 01-2.173-2.46c-.478-1.053-.717-2.636-.717-4.75l-.003-7.163zm16.397-5.741h1.914v20.612h-1.914V72.883zm6.573.219h1.914v5.523h3.034v1.653h-3.034v13.218h-1.914V80.278h-2.61v-1.653h2.61v-5.523zm6.808 5.522h1.914v6.944c0 1.695.091 2.861.274 3.499.274.912.796 1.63 1.568 2.16.771.529 1.69.792 2.758.792s1.974-.258 2.718-.772a3.954 3.954 0 001.54-2.03c.192-.574.287-1.789.287-3.648v-6.943h1.956v7.299c0 2.05-.239 3.594-.719 4.633a5.476 5.476 0 01-2.158 2.439c-.961.587-2.167.881-3.616.881-1.448 0-2.658-.294-3.629-.881a5.434 5.434 0 01-2.173-2.46c-.478-1.053-.718-2.636-.718-4.75v-7.163h-.002zm16.17 0h1.955v2.172c.583-.856 1.198-1.496 1.845-1.92.646-.422 1.321-.635 2.023-.635.528 0 1.093.169 1.695.505l-.998 1.614c-.401-.173-.738-.26-1.012-.26-.638 0-1.253.263-1.845.787-.591.524-1.043 1.337-1.353 2.439-.237.848-.355 2.561-.355 5.141v5.029h-1.955V78.624zm22.522 0v14.871h-1.885v-2.556c-.803.976-1.702 1.71-2.7 2.201-.997.492-2.089.738-3.273.738-2.105 0-3.903-.764-5.392-2.29-1.49-1.526-2.236-3.383-2.236-5.569 0-2.141.752-3.973 2.255-5.495s3.312-2.283 5.426-2.283c1.221 0 2.326.26 3.315.779.989.519 1.856 1.299 2.605 2.338v-2.734h1.885zm-7.647 1.462a5.779 5.779 0 00-2.95.786 5.748 5.748 0 00-2.15 2.205 6.03 6.03 0 00-.799 3.004c0 1.045.269 2.047.805 3.003a5.847 5.847 0 002.166 2.232 5.639 5.639 0 002.914.799 5.979 5.979 0 002.977-.791 5.565 5.565 0 002.165-2.144c.504-.902.757-1.917.757-3.044 0-1.72-.567-3.159-1.7-4.315-1.134-1.157-2.529-1.735-4.185-1.735zm11.094-7.203h1.913v20.612h-1.913V72.883zm13.027 0h1.914v8.406c.774-1.021 1.626-1.784 2.556-2.289a6.226 6.226 0 013.021-.759c1.111 0 2.098.283 2.959.847a5.055 5.055 0 011.907 2.275c.41.952.615 2.445.615 4.477v7.655h-1.913V86.4c0-1.713-.068-2.855-.206-3.43-.236-.985-.668-1.725-1.291-2.221-.625-.497-1.443-.746-2.454-.746-1.157 0-2.193.383-3.11 1.148a5.388 5.388 0 00-1.811 2.843c-.183.73-.273 2.078-.273 4.047v5.455h-1.914V72.883zm28.819 15.678l1.613.848c-.529 1.039-1.14 1.877-1.833 2.515a7.29 7.29 0 01-2.339 1.457c-.866.332-1.846.499-2.941.499-2.425 0-4.322-.795-5.69-2.385-1.369-1.589-2.053-3.388-2.053-5.393 0-1.885.579-3.566 1.737-5.042 1.47-1.877 3.435-2.815 5.897-2.815 2.536 0 4.559.961 6.074 2.884 1.076 1.358 1.624 3.052 1.642 5.084h-13.38c.035 1.729.588 3.144 1.655 4.248s2.386 1.657 3.956 1.657c.757 0 1.493-.131 2.211-.395.717-.263 1.325-.613 1.827-1.047.497-.44 1.04-1.144 1.624-2.115zm0-4.005c-.255-1.021-.627-1.836-1.116-2.447-.488-.61-1.133-1.103-1.936-1.476a5.93 5.93 0 00-2.532-.56c-1.46 0-2.714.469-3.764 1.407-.766.684-1.345 1.709-1.737 3.076h11.085zm4.466-5.932h1.956v2.172c.583-.856 1.198-1.496 1.845-1.92.646-.422 1.321-.635 2.023-.635.529 0 1.093.169 1.695.505l-.998 1.614c-.401-.173-.738-.26-1.011-.26-.638 0-1.254.263-1.846.787-.592.524-1.043 1.337-1.353 2.439-.237.848-.355 2.561-.355 5.141v5.029h-1.956V78.624zm9.755-6.123c.436 0 .808.154 1.117.464.308.31.462.684.462 1.121 0 .428-.154.797-.462 1.106-.308.31-.68.465-1.117.465-.426 0-.793-.155-1.103-.465a1.513 1.513 0 01-.462-1.106c0-.438.154-.811.462-1.121.309-.31.676-.464 1.103-.464zm-.95 6.123h1.914v14.871h-1.914V78.624zm6.573-5.522h1.914v5.523h3.035v1.653h-3.035v13.218h-1.914V80.278h-2.61v-1.653h2.61v-5.523zm20.955 5.522v14.871h-1.886v-2.556c-.802.976-1.701 1.71-2.7 2.201-.998.492-2.089.738-3.273.738-2.105 0-3.902-.764-5.393-2.29-1.49-1.526-2.234-3.383-2.234-5.569 0-2.141.751-3.973 2.254-5.495 1.503-1.522 3.312-2.283 5.427-2.283 1.221 0 2.325.26 3.314.779.988.519 1.856 1.299 2.604 2.338v-2.734h1.887zm-7.647 1.462a5.772 5.772 0 00-5.101 2.991 6.038 6.038 0 00-.798 3.004c0 1.045.268 2.047.806 3.003a5.85 5.85 0 002.164 2.232 5.648 5.648 0 002.915.799 5.97 5.97 0 002.976-.791c.938-.529 1.659-1.244 2.164-2.144.505-.902.759-1.917.759-3.044 0-1.72-.567-3.159-1.7-4.315-1.133-1.157-2.528-1.735-4.185-1.735zm23.976-1.462h1.913v11.851c0 2.087-.182 3.613-.547 4.579-.502 1.367-1.373 2.419-2.61 3.157-1.239.738-2.729 1.107-4.47 1.107-1.276 0-2.422-.181-3.438-.542-1.016-.361-1.842-.845-2.48-1.454-.638-.607-1.226-1.496-1.764-2.666h2.078c.565.984 1.296 1.713 2.19 2.187.894.474 2.003.711 3.326.711 1.303 0 2.406-.243 3.305-.729.898-.486 1.54-1.097 1.922-1.832.383-.735.575-1.923.575-3.563v-.765a7.235 7.235 0 01-2.64 2.098 7.705 7.705 0 01-3.312.732 7.732 7.732 0 01-3.858-1.018c-1.205-.679-2.135-1.593-2.791-2.741-.657-1.148-.986-2.411-.986-3.786 0-1.376.343-2.658 1.027-3.848a7.546 7.546 0 012.838-2.822c1.209-.693 2.484-1.039 3.825-1.039 1.113 0 2.15.23 3.112.69.962.46 1.891 1.219 2.785 2.275v-2.582zm-5.644 1.462a6.054 6.054 0 00-3.022.787 5.693 5.693 0 00-2.186 2.174 5.94 5.94 0 00-.792 2.999c0 1.632.547 2.98 1.64 4.047 1.094 1.066 2.51 1.6 4.251 1.6 1.758 0 3.173-.529 4.244-1.586 1.072-1.057 1.606-2.447 1.606-4.169 0-1.121-.246-2.121-.737-3a5.385 5.385 0 00-2.093-2.085 5.812 5.812 0 00-2.911-.767zm23.518 8.475l1.614.848c-.529 1.039-1.142 1.877-1.833 2.515a7.295 7.295 0 01-2.34 1.457c-.867.332-1.847.499-2.941.499-2.426 0-4.322-.795-5.691-2.385-1.368-1.589-2.052-3.388-2.052-5.393 0-1.885.578-3.566 1.736-5.042 1.47-1.877 3.435-2.815 5.897-2.815 2.535 0 4.559.961 6.074 2.884 1.075 1.358 1.623 3.052 1.642 5.084h-13.381c.035 1.729.588 3.144 1.655 4.248s2.386 1.657 3.955 1.657c.758 0 1.494-.131 2.211-.395.717-.263 1.325-.613 1.828-1.047.5-.44 1.043-1.144 1.626-2.115zm0-4.005c-.255-1.021-.627-1.836-1.115-2.447-.488-.61-1.134-1.103-1.937-1.476a5.925 5.925 0 00-2.531-.56c-1.46 0-2.715.469-3.764 1.407-.767.684-1.346 1.709-1.738 3.076h11.085zm-217.471 1.536l1.362 1.443a30.684 30.684 0 01-2.491 2.005 77.425 77.425 0 012.141 2.074c.694.69 1.291 1.329 1.791 1.913h-2.803l-2.667-2.748c-1.675 1.349-3.037 2.228-4.085 2.639a9.034 9.034 0 01-3.321.616c-1.549 0-2.793-.445-3.731-1.334-.939-.888-1.408-1.998-1.408-3.329 0-1.002.316-2.007.949-3.015.633-1.006 1.924-2.281 3.872-3.821-1.101-1.33-1.808-2.312-2.123-2.943-.313-.634-.471-1.237-.471-1.811 0-1.002.387-1.831 1.162-2.486.893-.765 2.005-1.148 3.335-1.148.838 0 1.604.168 2.296.505.692.337 1.221.791 1.586 1.359.364.57.547 1.174.547 1.812 0 .675-.237 1.392-.712 2.153-.475.761-1.41 1.734-2.806 2.918l3.048 3.199 1.997 2.026c1.073-.79 1.917-1.465 2.532-2.027zm-9.066-2.04c-1.708 1.287-2.827 2.31-3.357 3.07-.53.761-.795 1.465-.795 2.113 0 .766.324 1.443.973 2.03.648.589 1.442.882 2.383.882.712 0 1.411-.146 2.095-.437 1.077-.464 2.312-1.255 3.705-2.368l-3.171-3.268a60.352 60.352 0 01-1.833-2.022zm.245-2.662c.977-.756 1.711-1.499 2.205-2.227.347-.52.521-.979.521-1.381 0-.464-.227-.865-.679-1.203-.452-.336-1.053-.505-1.802-.505-.713 0-1.293.174-1.741.52-.448.346-.672.756-.672 1.23 0 .364.091.706.274 1.024.448.774 1.079 1.621 1.894 2.542z"
  /></svg>
